<svg xmlns="http://www.w3.org/2000/svg" viewBox="0 0 720 430" width="720" height="430" role="img" aria-label="Eco Pintura logo">
  <defs>
    <linearGradient id="gEco" x1="0" y1="0" x2="1" y2="0.15">
      <stop offset="0" stop-color="#9DD53A"/>
      <stop offset="0.55" stop-color="#5CBE49"/>
      <stop offset="1" stop-color="#37A94B"/>
    </linearGradient>
    <linearGradient id="gIcon" x1="0" y1="0" x2="1" y2="1">
      <stop offset="0" stop-color="#62C24A"/>
      <stop offset="1" stop-color="#2E9C46"/>
    </linearGradient>
    <linearGradient id="gPin" x1="0" y1="0" x2="1" y2="0.2">
      <stop offset="0" stop-color="#FBA63C"/>
      <stop offset="0.5" stop-color="#F47A29"/>
      <stop offset="1" stop-color="#EE5524"/>
    </linearGradient>
  </defs>

  <path d="M 60.55 138.45 L 106.75 138.45 Q 110.20 138.45 111.85 138.75 Q 113.65 138.90 115.90 140.10 Q 119.95 142.20 119.95 151.80 Q 119.95 162.30 114.40 164.10 Q 111.85 165.00 106.60 165.00 L 47.20 165.00 Q 36.70 165.00 34.90 159.30 Q 34.00 156.90 34.00 151.65 L 34.00 68.25 Q 34.00 60.60 36.85 57.90 Q 39.70 55.05 47.65 55.05 L 106.75 55.05 Q 110.20 55.05 111.85 55.35 Q 113.65 55.50 115.90 56.70 Q 119.95 58.80 119.95 68.40 Q 119.95 78.90 114.40 80.70 Q 111.85 81.60 106.60 81.60 L 60.55 81.60 L 60.55 96.75 L 90.25 96.75 Q 93.70 96.75 95.35 97.05 Q 97.15 97.20 99.40 98.40 Q 103.45 100.50 103.45 110.10 Q 103.45 120.60 97.75 122.40 Q 95.20 123.30 89.95 123.30 L 60.55 123.30 L 60.55 138.45 Z M 200.40 136.20 L 203.10 134.25 Q 208.20 131.25 210.30 131.25 Q 214.95 131.25 220.35 139.65 Q 223.65 144.90 223.65 148.05 Q 223.65 151.20 221.55 153.30 Q 219.60 155.40 216.90 157.05 Q 214.20 158.70 211.65 160.20 Q 209.25 161.70 201.60 164.10 Q 193.95 166.50 186.75 166.50 Q 179.70 166.50 172.35 164.70 Q 165.15 162.75 157.35 158.40 Q 149.70 153.90 143.55 147.60 Q 137.40 141.15 133.35 131.25 Q 129.45 121.20 129.45 109.50 Q 129.45 97.80 133.35 88.35 Q 137.25 78.75 143.25 72.60 Q 149.40 66.30 157.20 62.10 Q 171.90 54.00 186.75 54.00 Q 193.80 54.00 201.00 56.25 Q 208.35 58.35 212.10 60.60 L 215.70 62.70 Q 218.40 64.35 219.90 65.40 Q 223.80 68.55 223.80 72.60 Q 223.80 76.50 220.65 80.85 Q 214.80 88.95 210.15 88.95 Q 207.45 88.95 202.50 85.65 Q 196.20 80.55 185.70 80.55 Q 175.95 80.55 166.50 87.30 Q 162.00 90.60 159.00 96.60 Q 156.00 102.60 156.00 110.25 Q 156.00 117.75 159.00 123.75 Q 162.00 129.75 166.65 133.20 Q 175.80 139.80 185.70 139.80 Q 190.35 139.80 194.40 138.60 Q 198.60 137.40 200.40 136.20 Z M 287.15 53.70 Q 309.35 53.70 325.70 69.75 Q 342.05 85.80 342.05 109.65 Q 342.05 133.35 326.45 150.15 Q 310.85 166.80 288.05 166.80 Q 265.25 166.80 249.20 150.30 Q 233.30 133.80 233.30 111.00 Q 233.30 98.55 237.80 87.75 Q 242.30 76.80 249.80 69.45 Q 257.30 62.10 267.05 57.90 Q 276.80 53.70 287.15 53.70 M 259.85 110.25 Q 259.85 123.60 268.40 132.00 Q 277.10 140.25 287.75 140.25 Q 298.40 140.25 306.95 132.15 Q 315.50 124.05 315.50 110.40 Q 315.50 96.75 306.80 88.50 Q 298.25 80.25 287.60 80.25 Q 276.95 80.25 268.40 88.65 Q 259.85 96.90 259.85 110.25 Z" fill="url(#gEco)"/>
  <g>
    <circle cx="423.8" cy="112.0" r="62.0" fill="url(#gIcon)"/>
    <g fill="none" stroke="#FFFFFF" stroke-width="5.3" stroke-linecap="round">
      <path d="M 433.7 57.4 L 401.5 166.6" />
      <path d="M 427.9 77.1 L 469.8 71.2" />
      <path d="M 420.8 101.1 L 484.6 117.0" />
      <path d="M 413.7 125.1 L 463.4 158.6" />
      <path d="M 407.3 146.9 L 425.3 173.6" />
      <path d="M 424.0 90.2 L 374.0 76.3" />
    </g>
  </g>
  <path d="M 111.15 272.25 Q 115.05 280.20 115.05 289.95 Q 115.05 299.70 111.15 307.65 Q 107.25 315.45 101.10 320.10 Q 88.65 329.70 75.30 329.70 L 56.55 329.70 L 56.55 346.65 Q 56.55 350.10 56.25 351.90 Q 56.10 353.55 54.90 355.80 Q 52.80 359.85 43.20 359.85 Q 32.70 359.85 30.90 354.30 Q 30.00 351.75 30.00 346.50 L 30.00 263.25 Q 30.00 259.80 30.15 258.15 Q 30.45 256.35 31.65 254.10 Q 33.75 250.05 43.35 250.05 L 75.45 250.05 Q 88.65 250.05 101.10 259.65 Q 107.25 264.30 111.15 272.25 M 75.45 303.15 Q 79.95 303.15 84.30 299.85 Q 88.65 296.55 88.65 289.95 Q 88.65 283.35 84.30 280.05 Q 79.95 276.60 75.30 276.60 L 56.55 276.60 L 56.55 303.15 L 75.45 303.15 Z M 125.80 263.25 Q 125.80 259.80 125.95 258.15 Q 126.25 256.35 127.45 254.10 Q 129.55 250.05 139.15 250.05 Q 149.65 250.05 151.60 255.60 Q 152.35 258.15 152.35 263.40 L 152.35 346.80 Q 152.35 350.40 152.05 352.05 Q 151.90 353.70 150.70 355.95 Q 148.60 360.00 139.00 360.00 Q 128.50 360.00 126.70 354.30 Q 125.80 351.90 125.80 346.65 L 125.80 263.25 Z M 236.30 254.70 Q 237.80 252.00 240.65 251.10 Q 243.50 250.20 247.70 250.20 Q 252.05 250.20 254.60 250.95 Q 257.30 251.70 258.50 252.75 Q 259.85 253.80 260.45 255.90 Q 261.35 258.30 261.35 263.55 L 261.35 346.80 Q 261.35 350.40 261.05 352.05 Q 260.90 353.70 259.70 355.95 Q 257.60 360.00 248.00 360.00 Q 242.15 360.00 239.90 359.10 Q 237.65 358.20 236.15 356.25 Q 202.40 311.25 191.75 297.45 L 191.75 346.80 Q 191.75 350.40 191.45 352.05 Q 191.30 353.70 190.10 355.95 Q 188.00 360.00 178.40 360.00 Q 169.10 360.00 167.00 355.95 Q 165.80 353.70 165.50 351.90 Q 165.35 350.10 165.35 346.65 L 165.35 262.95 Q 165.35 257.25 166.70 254.70 Q 168.20 252.00 171.05 251.10 Q 173.90 250.20 178.40 250.20 Q 182.90 250.20 185.45 251.10 Q 188.15 251.85 189.20 252.90 Q 189.80 253.35 192.65 256.80 Q 224.30 299.85 234.95 313.65 L 234.95 262.95 Q 234.95 257.25 236.30 254.70 Z M 281.55 249.90 L 364.95 249.90 Q 369.75 249.90 372.00 251.10 Q 374.25 252.15 375.00 254.55 Q 375.75 256.95 375.75 260.85 Q 375.75 264.75 375.00 267.15 Q 374.25 269.40 372.45 270.30 Q 369.75 271.65 364.80 271.65 L 336.15 271.65 L 336.15 347.10 Q 336.15 350.55 335.85 352.20 Q 335.70 353.85 334.50 356.10 Q 333.45 358.20 330.60 359.10 Q 327.75 360.00 323.10 360.00 Q 318.45 360.00 315.60 359.10 Q 312.90 358.20 311.70 356.10 Q 310.65 353.85 310.35 352.20 Q 310.20 350.40 310.20 346.95 L 310.20 271.65 L 281.40 271.65 Q 276.60 271.65 274.35 270.60 Q 272.10 269.40 271.35 267.00 Q 270.60 264.60 270.60 260.70 Q 270.60 256.80 271.35 254.55 Q 272.10 252.15 273.90 251.25 Q 276.60 249.90 281.55 249.90 Z M 456.85 254.10 Q 458.35 251.70 461.20 250.80 Q 464.05 249.90 468.25 249.90 Q 472.60 249.90 475.15 250.65 Q 477.70 251.40 479.05 252.45 Q 480.40 253.50 481.00 255.60 Q 481.90 258.15 481.90 263.40 L 481.90 308.70 Q 481.90 328.50 469.60 344.70 Q 463.60 352.35 454.15 357.15 Q 444.70 361.80 433.15 361.80 Q 421.75 361.80 412.30 357.00 Q 403.00 352.20 397.15 344.40 Q 385.00 328.50 385.00 308.40 L 385.00 263.25 Q 385.00 259.65 385.15 258.00 Q 385.45 256.20 386.65 253.95 Q 387.85 251.70 390.70 250.80 Q 393.55 249.90 398.35 249.90 Q 403.15 249.90 406.00 250.80 Q 408.85 251.70 409.90 253.95 Q 411.70 257.40 411.70 263.40 L 411.70 308.40 Q 411.70 317.55 416.20 325.80 Q 418.45 330.00 422.95 332.55 Q 427.45 335.10 433.60 335.10 Q 444.55 335.10 449.95 327.00 Q 455.35 318.90 455.35 308.25 L 455.35 262.35 Q 455.35 256.50 456.85 254.10 Z M 579.05 341.40 Q 581.30 346.80 581.30 349.20 Q 581.30 354.90 572.00 358.80 Q 567.20 360.90 564.20 360.90 Q 561.35 360.90 559.40 359.55 Q 557.60 358.05 556.70 356.55 Q 555.20 353.70 545.00 329.40 L 540.35 329.70 L 521.45 329.70 L 521.45 346.65 Q 521.45 350.10 521.15 351.90 Q 521.00 353.55 519.80 355.80 Q 517.70 359.85 508.10 359.85 Q 497.60 359.85 495.80 354.30 Q 494.90 351.75 494.90 346.50 L 494.90 263.25 Q 494.90 259.80 495.05 258.15 Q 495.35 256.35 496.55 254.10 Q 498.65 250.05 508.25 250.05 L 540.65 250.05 Q 553.85 250.05 566.30 259.65 Q 572.30 264.30 576.20 272.25 Q 580.10 280.20 580.10 289.95 Q 580.10 306.90 568.85 317.85 Q 572.15 325.80 579.05 341.40 M 521.45 303.15 L 540.65 303.15 Q 545.00 303.15 549.35 299.85 Q 553.70 296.55 553.70 289.95 Q 553.70 283.35 549.35 280.05 Q 545.00 276.60 540.35 276.60 L 521.45 276.60 L 521.45 303.15 Z M 654.00 257.85 L 694.50 341.55 Q 697.05 346.65 697.05 349.20 Q 697.05 354.60 688.35 358.95 Q 683.25 361.50 680.25 361.50 Q 677.40 361.50 675.45 360.15 Q 673.65 358.80 672.75 357.30 Q 672.00 355.80 670.50 352.80 L 662.70 336.60 L 621.15 336.60 L 613.35 352.80 Q 611.85 355.80 610.95 357.15 Q 610.20 358.50 608.25 360.00 Q 606.45 361.35 603.45 361.35 Q 600.60 361.35 595.50 358.80 Q 586.80 354.60 586.80 349.20 Q 586.80 346.65 589.35 341.55 L 629.85 257.70 Q 631.50 254.25 634.80 252.15 Q 638.25 250.05 642.00 250.05 Q 650.10 250.05 654.00 257.85 M 641.85 293.85 L 631.95 314.40 L 651.90 314.40 L 641.85 293.85 Z" fill="url(#gPin)"/>
</svg>